<svg xmlns="http://www.w3.org/2000/svg" xmlns:xlink="http://www.w3.org/1999/xlink" contentstyletype="text/css" data-diagram-type="CLASS" height="1140px" preserveAspectRatio="none" style="width:1883px;height:1140px;background:#FFFFFF;" version="1.1" viewBox="0 0 1883 1140" width="1883px" zoomAndPan="magnify"><title>Entity-Relationship Diagram (DER) - Patient Management System - EBSERH - Version 2.0</title><defs></defs><g><g class="title" data-source-line="174"><text fill="#000000" font-family="sans-serif" font-size="14" font-weight="bold" lengthAdjust="spacing" textLength="644.1641" x="612.77" y="23.5352">Entity-Relationship Diagram (DER) - Patient Management System - EBSERH - Version 2.0</text></g><g class="entity" data-qualified-name="patients" data-source-line="12" id="ent0002"><rect fill="#F1F1F1" height="386.3867" rx="2.5" ry="2.5" style="stroke:#181818;stroke-width:0.5;" width="250.1094" x="363.3" y="309.4983"></rect><ellipse cx="456.7609" cy="329.8088" fill="#ADD1B2" rx="11" ry="11" style="stroke:#181818;stroke-width:1;"></ellipse><path d="M460.3752,336.3088 L452.6555,336.3088 L452.6555,323.9158 L460.3752,323.9158 L460.3752,326.074 L455.1042,326.074 L455.1042,328.7468 L459.8771,328.7468 L459.8771,330.905 L455.1042,330.905 L455.1042,334.1506 L460.3752,334.1506 Z " fill="#000000"></path><text fill="#000000" font-family="sans-serif" font-size="12" font-style="italic" lengthAdjust="spacing" textLength="41.3965" x="483.9064" y="326.0998">«table»</text><text fill="#000000" font-family="sans-serif" font-size="14" lengthAdjust="spacing" textLength="54.6875" x="477.2609" y="342.1663">patients</text><line style="stroke:#181818;stroke-width:0.5;" x1="364.3" x2="612.4094" y1="350.1194" y2="350.1194"></line><text fill="#000000" font-family="sans-serif" font-size="14" lengthAdjust="spacing" textLength="114.3037" x="369.3" y="367.6545">*id : BIGINT «PK»</text><line style="stroke:#181818;stroke-width:1;" x1="364.3" x2="612.4094" y1="374.6077" y2="374.6077"></line><text fill="#000000" font-family="sans-serif" font-size="14" lengthAdjust="spacing" textLength="198.9258" x="369.3" y="392.1428">*name : VARCHAR(100) «NN»</text><text fill="#000000" font-family="sans-serif" font-size="14" lengthAdjust="spacing" textLength="213.6914" x="369.3" y="408.6311">*cpf : VARCHAR(11) «NN, UNQ»</text><text fill="#000000" font-family="sans-serif" font-size="14" lengthAdjust="spacing" textLength="238.1094" x="369.3" y="425.1194">*email : VARCHAR(100) «NN, UNQ»</text><text fill="#000000" font-family="sans-serif" font-size="14" lengthAdjust="spacing" textLength="195.3711" x="369.3" y="441.6077">*phone : VARCHAR(11) «NN»</text><text fill="#000000" font-family="sans-serif" font-size="14" lengthAdjust="spacing" textLength="165.498" x="369.3" y="458.0959">*birth_date : DATE «NN»</text><text fill="#000000" font-family="sans-serif" font-size="14" lengthAdjust="spacing" textLength="153.8086" x="369.3" y="474.5842">gender : VARCHAR(20)</text><text fill="#000000" font-family="sans-serif" font-size="14" lengthAdjust="spacing" textLength="181.2822" x="369.3" y="491.0725">blood_type : VARCHAR(20)</text><text fill="#000000" font-family="sans-serif" font-size="14" lengthAdjust="spacing" textLength="168.2598" x="369.3" y="507.5608">address : VARCHAR(200)</text><text fill="#000000" font-family="sans-serif" font-size="14" lengthAdjust="spacing" textLength="138.8721" x="369.3" y="524.0491">city : VARCHAR(100)</text><text fill="#000000" font-family="sans-serif" font-size="14" lengthAdjust="spacing" textLength="130.5391" x="369.3" y="540.5373">state : VARCHAR(2)</text><text fill="#000000" font-family="sans-serif" font-size="14" lengthAdjust="spacing" textLength="166.5166" x="369.3" y="557.0256">zip_code : VARCHAR(10)</text><text fill="#000000" font-family="sans-serif" font-size="14" lengthAdjust="spacing" textLength="221.5322" x="369.3" y="573.5139">medical_history : VARCHAR(500)</text><text fill="#000000" font-family="sans-serif" font-size="14" lengthAdjust="spacing" textLength="172.1699" x="369.3" y="590.0022">allergies : VARCHAR(500)</text><text fill="#000000" font-family="sans-serif" font-size="14" lengthAdjust="spacing" textLength="237.1865" x="369.3" y="606.4905">emergency_contact : VARCHAR(20)</text><text fill="#000000" font-family="sans-serif" font-size="14" lengthAdjust="spacing" textLength="229.9404" x="369.3" y="622.9788">emergency_phone : VARCHAR(11)</text><text fill="#000000" font-family="sans-serif" font-size="14" lengthAdjust="spacing" textLength="184.5908" x="369.3" y="639.467">*unity_id : BIGINT «NN, FK»</text><text fill="#000000" font-family="sans-serif" font-size="14" lengthAdjust="spacing" textLength="167.8701" x="369.3" y="655.9553">created_by : BIGINT «FK»</text><text fill="#000000" font-family="sans-serif" font-size="14" lengthAdjust="spacing" textLength="201.7012" x="369.3" y="672.4436">created_at : TIMESTAMP «NN»</text><text fill="#000000" font-family="sans-serif" font-size="14" lengthAdjust="spacing" textLength="207.3135" x="369.3" y="688.9319">updated_at : TIMESTAMP «NN»</text></g><g class="entity" data-qualified-name="unity" data-source-line="36" id="ent0003"><rect fill="#F1F1F1" height="122.5742" rx="2.5" ry="2.5" style="stroke:#181818;stroke-width:0.5;" width="250.7041" x="245" y="85.7083"></rect><ellipse cx="347.4038" cy="106.0188" fill="#ADD1B2" rx="11" ry="11" style="stroke:#181818;stroke-width:1;"></ellipse><path d="M351.0181,112.5188 L343.2983,112.5188 L343.2983,100.1258 L351.0181,100.1258 L351.0181,102.284 L345.7471,102.284 L345.7471,104.9568 L350.52,104.9568 L350.52,107.115 L345.7471,107.115 L345.7471,110.3606 L351.0181,110.3606 Z " fill="#000000"></path><text fill="#000000" font-family="sans-serif" font-size="12" font-style="italic" lengthAdjust="spacing" textLength="41.3965" x="365.9038" y="102.3098">«table»</text><text fill="#000000" font-family="sans-serif" font-size="14" lengthAdjust="spacing" textLength="33.9746" x="369.6147" y="118.3763">unity</text><line style="stroke:#181818;stroke-width:0.5;" x1="246" x2="494.7041" y1="126.3294" y2="126.3294"></line><text fill="#000000" font-family="sans-serif" font-size="14" lengthAdjust="spacing" textLength="114.3037" x="251" y="143.8645">*id : BIGINT «PK»</text><line style="stroke:#181818;stroke-width:1;" x1="246" x2="494.7041" y1="150.8177" y2="150.8177"></line><text fill="#000000" font-family="sans-serif" font-size="14" lengthAdjust="spacing" textLength="238.7041" x="251" y="168.3528">*name : VARCHAR(100) «NN, UNQ»</text><text fill="#000000" font-family="sans-serif" font-size="14" lengthAdjust="spacing" textLength="201.7012" x="251" y="184.8411">created_at : TIMESTAMP «NN»</text><text fill="#000000" font-family="sans-serif" font-size="14" lengthAdjust="spacing" textLength="207.3135" x="251" y="201.3294">updated_at : TIMESTAMP «NN»</text></g><g class="entity" data-qualified-name="users" data-source-line="44" id="ent0004"><rect fill="#F1F1F1" height="205.0156" rx="2.5" ry="2.5" style="stroke:#181818;stroke-width:0.5;" width="271.2051" x="530.75" y="44.4883"></rect><ellipse cx="643.4043" cy="64.7988" fill="#ADD1B2" rx="11" ry="11" style="stroke:#181818;stroke-width:1;"></ellipse><path d="M647.0186,71.2988 L639.2988,71.2988 L639.2988,58.9058 L647.0186,58.9058 L647.0186,61.064 L641.7476,61.064 L641.7476,63.7368 L646.5205,63.7368 L646.5205,65.895 L641.7476,65.895 L641.7476,69.1406 L647.0186,69.1406 Z " fill="#000000"></path><text fill="#000000" font-family="sans-serif" font-size="12" font-style="italic" lengthAdjust="spacing" textLength="41.3965" x="661.9043" y="61.0898">«table»</text><text fill="#000000" font-family="sans-serif" font-size="14" lengthAdjust="spacing" textLength="36.4902" x="664.3574" y="77.1563">users</text><line style="stroke:#181818;stroke-width:0.5;" x1="531.75" x2="800.9551" y1="85.1094" y2="85.1094"></line><text fill="#000000" font-family="sans-serif" font-size="14" lengthAdjust="spacing" textLength="114.3037" x="536.75" y="102.6445">*id : BIGINT «PK»</text><line style="stroke:#181818;stroke-width:1;" x1="531.75" x2="800.9551" y1="109.5977" y2="109.5977"></line><text fill="#000000" font-family="sans-serif" font-size="14" lengthAdjust="spacing" textLength="259.2051" x="536.75" y="127.1328">*username : VARCHAR(50) «NN, UNQ»</text><text fill="#000000" font-family="sans-serif" font-size="14" lengthAdjust="spacing" textLength="226.3789" x="536.75" y="143.6211">*password : VARCHAR(255) «NN»</text><text fill="#000000" font-family="sans-serif" font-size="14" lengthAdjust="spacing" textLength="238.1094" x="536.75" y="160.1094">*email : VARCHAR(100) «NN, UNQ»</text><text fill="#000000" font-family="sans-serif" font-size="14" lengthAdjust="spacing" textLength="221.1084" x="536.75" y="176.5977">full_name : VARCHAR(100) «NN»</text><text fill="#000000" font-family="sans-serif" font-size="14" lengthAdjust="spacing" textLength="172.2109" x="536.75" y="193.0859">role : VARCHAR(20) «NN»</text><text fill="#000000" font-family="sans-serif" font-size="14" lengthAdjust="spacing" textLength="175.3486" x="536.75" y="209.5742">is_active : BOOLEAN «NN»</text><text fill="#000000" font-family="sans-serif" font-size="14" lengthAdjust="spacing" textLength="201.7012" x="536.75" y="226.0625">created_at : TIMESTAMP «NN»</text><text fill="#000000" font-family="sans-serif" font-size="14" lengthAdjust="spacing" textLength="207.3135" x="536.75" y="242.5508">updated_at : TIMESTAMP «NN»</text></g><g class="entity" data-qualified-name="exams" data-source-line="57" id="ent0005"><rect fill="#F1F1F1" height="139.0625" rx="2.5" ry="2.5" style="stroke:#181818;stroke-width:0.5;" width="250.7041" x="7" y="433.1683"></rect><ellipse cx="105.9399" cy="453.4788" fill="#ADD1B2" rx="11" ry="11" style="stroke:#181818;stroke-width:1;"></ellipse><path d="M109.5542,459.9788 L101.8345,459.9788 L101.8345,447.5858 L109.5542,447.5858 L109.5542,449.744 L104.2832,449.744 L104.2832,452.4168 L109.0562,452.4168 L109.0562,454.575 L104.2832,454.575 L104.2832,457.8206 L109.5542,457.8206 Z " fill="#000000"></path><text fill="#000000" font-family="sans-serif" font-size="12" font-style="italic" lengthAdjust="spacing" textLength="41.3965" x="127.9038" y="449.7698">«table»</text><text fill="#000000" font-family="sans-serif" font-size="14" lengthAdjust="spacing" textLength="44.3242" x="126.4399" y="465.8362">exams</text><line style="stroke:#181818;stroke-width:0.5;" x1="8" x2="256.7041" y1="473.7894" y2="473.7894"></line><text fill="#000000" font-family="sans-serif" font-size="14" lengthAdjust="spacing" textLength="114.3037" x="13" y="491.3245">*id : BIGINT «PK»</text><line style="stroke:#181818;stroke-width:1;" x1="8" x2="256.7041" y1="498.2777" y2="498.2777"></line><text fill="#000000" font-family="sans-serif" font-size="14" lengthAdjust="spacing" textLength="238.7041" x="13" y="515.8128">*name : VARCHAR(100) «NN, UNQ»</text><text fill="#000000" font-family="sans-serif" font-size="14" lengthAdjust="spacing" textLength="191.1807" x="13" y="532.3011">description : VARCHAR(200)</text><text fill="#000000" font-family="sans-serif" font-size="14" lengthAdjust="spacing" textLength="201.7012" x="13" y="548.7894">created_at : TIMESTAMP «NN»</text><text fill="#000000" font-family="sans-serif" font-size="14" lengthAdjust="spacing" textLength="207.3135" x="13" y="565.2777">updated_at : TIMESTAMP «NN»</text></g><g class="entity" data-qualified-name="result_exams" data-source-line="66" id="ent0006"><rect fill="#F1F1F1" height="205.0156" rx="2.5" ry="2.5" style="stroke:#181818;stroke-width:0.5;" width="254.7852" x="182.96" y="788.8683"></rect><ellipse cx="261.1221" cy="809.1788" fill="#ADD1B2" rx="11" ry="11" style="stroke:#181818;stroke-width:1;"></ellipse><path d="M264.7364,815.6788 L257.0166,815.6788 L257.0166,803.2858 L264.7364,803.2858 L264.7364,805.444 L259.4654,805.444 L259.4654,808.1168 L264.2383,808.1168 L264.2383,810.275 L259.4654,810.275 L259.4654,813.5206 L264.7364,813.5206 Z " fill="#000000"></path><text fill="#000000" font-family="sans-serif" font-size="12" font-style="italic" lengthAdjust="spacing" textLength="41.3965" x="305.9043" y="805.4698">«table»</text><text fill="#000000" font-family="sans-serif" font-size="14" lengthAdjust="spacing" textLength="89.9609" x="281.6221" y="821.5363">result_exams</text><line style="stroke:#181818;stroke-width:0.5;" x1="183.96" x2="436.7452" y1="829.4894" y2="829.4894"></line><text fill="#000000" font-family="sans-serif" font-size="14" lengthAdjust="spacing" textLength="114.3037" x="188.96" y="847.0245">*id : BIGINT «PK»</text><line style="stroke:#181818;stroke-width:1;" x1="183.96" x2="436.7452" y1="853.9777" y2="853.9777"></line><text fill="#000000" font-family="sans-serif" font-size="14" lengthAdjust="spacing" textLength="198.167" x="188.96" y="871.5128">*patient_id : BIGINT «NN, FK»</text><text fill="#000000" font-family="sans-serif" font-size="14" lengthAdjust="spacing" textLength="187.8037" x="188.96" y="888.0011">*exam_id : BIGINT «NN, FK»</text><text fill="#000000" font-family="sans-serif" font-size="14" lengthAdjust="spacing" textLength="171.623" x="188.96" y="904.4894">*result_date : DATE «NN»</text><text fill="#000000" font-family="sans-serif" font-size="14" lengthAdjust="spacing" textLength="242.7852" x="188.96" y="920.9777">*result_value : VARCHAR(500) «NN»</text><text fill="#000000" font-family="sans-serif" font-size="14" lengthAdjust="spacing" textLength="152.5645" x="188.96" y="937.4659">notes : VARCHAR(500)</text><text fill="#000000" font-family="sans-serif" font-size="14" lengthAdjust="spacing" textLength="167.8701" x="188.96" y="953.9542">created_by : BIGINT «FK»</text><text fill="#000000" font-family="sans-serif" font-size="14" lengthAdjust="spacing" textLength="201.7012" x="188.96" y="970.4425">created_at : TIMESTAMP «NN»</text><text fill="#000000" font-family="sans-serif" font-size="14" lengthAdjust="spacing" textLength="207.3135" x="188.96" y="986.9308">updated_at : TIMESTAMP «NN»</text></g><g class="entity" data-qualified-name="medications" data-source-line="79" id="ent0007"><rect fill="#F1F1F1" height="155.5508" rx="2.5" ry="2.5" style="stroke:#181818;stroke-width:0.5;" width="250.7041" x="719" y="424.9183"></rect><ellipse cx="798.9326" cy="445.2288" fill="#ADD1B2" rx="11" ry="11" style="stroke:#181818;stroke-width:1;"></ellipse><path d="M802.5469,451.7288 L794.8271,451.7288 L794.8271,439.3358 L802.5469,439.3358 L802.5469,441.494 L797.2759,441.494 L797.2759,444.1668 L802.0488,444.1668 L802.0488,446.325 L797.2759,446.325 L797.2759,449.5706 L802.5469,449.5706 Z " fill="#000000"></path><text fill="#000000" font-family="sans-serif" font-size="12" font-style="italic" lengthAdjust="spacing" textLength="41.3965" x="839.9038" y="441.5198">«table»</text><text fill="#000000" font-family="sans-serif" font-size="14" lengthAdjust="spacing" textLength="82.3389" x="819.4326" y="457.5862">medications</text><line style="stroke:#181818;stroke-width:0.5;" x1="720" x2="968.7041" y1="465.5394" y2="465.5394"></line><text fill="#000000" font-family="sans-serif" font-size="14" lengthAdjust="spacing" textLength="114.3037" x="725" y="483.0745">*id : BIGINT «PK»</text><line style="stroke:#181818;stroke-width:1;" x1="720" x2="968.7041" y1="490.0277" y2="490.0277"></line><text fill="#000000" font-family="sans-serif" font-size="14" lengthAdjust="spacing" textLength="238.7041" x="725" y="507.5628">*name : VARCHAR(100) «NN, UNQ»</text><text fill="#000000" font-family="sans-serif" font-size="14" lengthAdjust="spacing" textLength="191.1807" x="725" y="524.0511">description : VARCHAR(200)</text><text fill="#000000" font-family="sans-serif" font-size="14" lengthAdjust="spacing" textLength="194.6055" x="725" y="540.5394">dosage_form : VARCHAR(50)</text><text fill="#000000" font-family="sans-serif" font-size="14" lengthAdjust="spacing" textLength="201.7012" x="725" y="557.0277">created_at : TIMESTAMP «NN»</text><text fill="#000000" font-family="sans-serif" font-size="14" lengthAdjust="spacing" textLength="207.3135" x="725" y="573.5159">updated_at : TIMESTAMP «NN»</text></g><g class="entity" data-qualified-name="doctors" data-source-line="89" id="ent0008"><rect fill="#F1F1F1" height="188.5273" rx="2.5" ry="2.5" style="stroke:#181818;stroke-width:0.5;" width="230.5313" x="1005.09" y="408.4283"></rect><ellipse cx="1090.464" cy="428.7388" fill="#ADD1B2" rx="11" ry="11" style="stroke:#181818;stroke-width:1;"></ellipse><path d="M1094.0783,435.2388 L1086.3586,435.2388 L1086.3586,422.8458 L1094.0783,422.8458 L1094.0783,425.004 L1088.8073,425.004 L1088.8073,427.6768 L1093.5802,427.6768 L1093.5802,429.835 L1088.8073,429.835 L1088.8073,433.0806 L1094.0783,433.0806 Z " fill="#000000"></path><text fill="#000000" font-family="sans-serif" font-size="12" font-style="italic" lengthAdjust="spacing" textLength="41.3965" x="1115.9074" y="425.0298">«table»</text><text fill="#000000" font-family="sans-serif" font-size="14" lengthAdjust="spacing" textLength="51.2832" x="1110.964" y="441.0963">doctors</text><line style="stroke:#181818;stroke-width:0.5;" x1="1006.09" x2="1234.6213" y1="449.0494" y2="449.0494"></line><text fill="#000000" font-family="sans-serif" font-size="14" lengthAdjust="spacing" textLength="114.3037" x="1011.09" y="466.5845">*id : BIGINT «PK»</text><line style="stroke:#181818;stroke-width:1;" x1="1006.09" x2="1234.6213" y1="473.5377" y2="473.5377"></line><text fill="#000000" font-family="sans-serif" font-size="14" lengthAdjust="spacing" textLength="198.9258" x="1011.09" y="491.0728">*name : VARCHAR(100) «NN»</text><text fill="#000000" font-family="sans-serif" font-size="14" lengthAdjust="spacing" textLength="218.5313" x="1011.09" y="507.5611">*crm : VARCHAR(20) «NN, UNQ»</text><text fill="#000000" font-family="sans-serif" font-size="14" lengthAdjust="spacing" textLength="174.3984" x="1011.09" y="524.0494">specialty : VARCHAR(100)</text><text fill="#000000" font-family="sans-serif" font-size="14" lengthAdjust="spacing" textLength="148.8389" x="1011.09" y="540.5377">phone : VARCHAR(20)</text><text fill="#000000" font-family="sans-serif" font-size="14" lengthAdjust="spacing" textLength="151.7988" x="1011.09" y="557.0259">email : VARCHAR(100)</text><text fill="#000000" font-family="sans-serif" font-size="14" lengthAdjust="spacing" textLength="201.7012" x="1011.09" y="573.5142">created_at : TIMESTAMP «NN»</text><text fill="#000000" font-family="sans-serif" font-size="14" lengthAdjust="spacing" textLength="207.3135" x="1011.09" y="590.0025">updated_at : TIMESTAMP «NN»</text></g><g class="entity" data-qualified-name="current_medication" data-source-line="101" id="ent0009"><rect fill="#F1F1F1" height="221.5039" rx="2.5" ry="2.5" style="stroke:#181818;stroke-width:0.5;" width="237.8184" x="636.44" y="780.6183"></rect><ellipse cx="685.4776" cy="800.9288" fill="#ADD1B2" rx="11" ry="11" style="stroke:#181818;stroke-width:1;"></ellipse><path d="M689.0919,807.4288 L681.3721,807.4288 L681.3721,795.0358 L689.0919,795.0358 L689.0919,797.194 L683.8209,797.194 L683.8209,799.8668 L688.5938,799.8668 L688.5938,802.025 L683.8209,802.025 L683.8209,805.2706 L689.0919,805.2706 Z " fill="#000000"></path><text fill="#000000" font-family="sans-serif" font-size="12" font-style="italic" lengthAdjust="spacing" textLength="41.3965" x="750.9009" y="797.2198">«table»</text><text fill="#000000" font-family="sans-serif" font-size="14" lengthAdjust="spacing" textLength="131.2432" x="705.9776" y="813.2863">current_medication</text><line style="stroke:#181818;stroke-width:0.5;" x1="637.44" x2="873.2584" y1="821.2394" y2="821.2394"></line><text fill="#000000" font-family="sans-serif" font-size="14" lengthAdjust="spacing" textLength="114.3037" x="642.44" y="838.7745">*id : BIGINT «PK»</text><line style="stroke:#181818;stroke-width:1;" x1="637.44" x2="873.2584" y1="845.7277" y2="845.7277"></line><text fill="#000000" font-family="sans-serif" font-size="14" lengthAdjust="spacing" textLength="198.167" x="642.44" y="863.2628">*patient_id : BIGINT «NN, FK»</text><text fill="#000000" font-family="sans-serif" font-size="14" lengthAdjust="spacing" textLength="225.8184" x="642.44" y="879.7511">*medication_id : BIGINT «NN, FK»</text><text fill="#000000" font-family="sans-serif" font-size="14" lengthAdjust="spacing" textLength="158.4707" x="642.44" y="896.2394">doctor_id : BIGINT «FK»</text><text fill="#000000" font-family="sans-serif" font-size="14" lengthAdjust="spacing" textLength="164.0557" x="642.44" y="912.7277">*start_date : DATE «NN»</text><text fill="#000000" font-family="sans-serif" font-size="14" lengthAdjust="spacing" textLength="210.4443" x="642.44" y="929.2159">*dosage : VARCHAR(500) «NN»</text><text fill="#000000" font-family="sans-serif" font-size="14" lengthAdjust="spacing" textLength="152.5645" x="642.44" y="945.7042">notes : VARCHAR(500)</text><text fill="#000000" font-family="sans-serif" font-size="14" lengthAdjust="spacing" textLength="167.8701" x="642.44" y="962.1925">created_by : BIGINT «FK»</text><text fill="#000000" font-family="sans-serif" font-size="14" lengthAdjust="spacing" textLength="201.7012" x="642.44" y="978.6808">created_at : TIMESTAMP «NN»</text><text fill="#000000" font-family="sans-serif" font-size="14" lengthAdjust="spacing" textLength="207.3135" x="642.44" y="995.1691">updated_at : TIMESTAMP «NN»</text></g><g class="entity" data-qualified-name="cid10" data-source-line="115" id="ent0010"><rect fill="#F1F1F1" height="139.0625" rx="2.5" ry="2.5" style="stroke:#181818;stroke-width:0.5;" width="249.7129" x="1341.5" y="433.1683"></rect><ellipse cx="1443.2393" cy="453.4788" fill="#ADD1B2" rx="11" ry="11" style="stroke:#181818;stroke-width:1;"></ellipse><path d="M1446.8535,459.9788 L1439.1338,459.9788 L1439.1338,447.5858 L1446.8535,447.5858 L1446.8535,449.744 L1441.5825,449.744 L1441.5825,452.4168 L1446.3555,452.4168 L1446.3555,454.575 L1441.5825,454.575 L1441.5825,457.8206 L1446.8535,457.8206 Z " fill="#000000"></path><text fill="#000000" font-family="sans-serif" font-size="12" font-style="italic" lengthAdjust="spacing" textLength="41.3965" x="1461.9082" y="449.7698">«table»</text><text fill="#000000" font-family="sans-serif" font-size="14" lengthAdjust="spacing" textLength="37.7344" x="1463.7393" y="465.8362">cid10</text><line style="stroke:#181818;stroke-width:0.5;" x1="1342.5" x2="1590.2129" y1="473.7894" y2="473.7894"></line><text fill="#000000" font-family="sans-serif" font-size="14" lengthAdjust="spacing" textLength="114.3037" x="1347.5" y="491.3245">*id : BIGINT «PK»</text><line style="stroke:#181818;stroke-width:1;" x1="1342.5" x2="1590.2129" y1="498.2777" y2="498.2777"></line><text fill="#000000" font-family="sans-serif" font-size="14" lengthAdjust="spacing" textLength="224.9434" x="1347.5" y="515.8128">*code : VARCHAR(10) «NN, UNQ»</text><text fill="#000000" font-family="sans-serif" font-size="14" lengthAdjust="spacing" textLength="237.7129" x="1347.5" y="532.3011">*description : VARCHAR(500) «NN»</text><text fill="#000000" font-family="sans-serif" font-size="14" lengthAdjust="spacing" textLength="201.7012" x="1347.5" y="548.7894">created_at : TIMESTAMP «NN»</text><text fill="#000000" font-family="sans-serif" font-size="14" lengthAdjust="spacing" textLength="207.3135" x="1347.5" y="565.2777">updated_at : TIMESTAMP «NN»</text></g><g class="entity" data-qualified-name="specialty" data-source-line="124" id="ent0011"><rect fill="#F1F1F1" height="139.0625" rx="2.5" ry="2.5" style="stroke:#181818;stroke-width:0.5;" width="250.7041" x="1626" y="433.1683"></rect><ellipse cx="1717.4546" cy="453.4788" fill="#ADD1B2" rx="11" ry="11" style="stroke:#181818;stroke-width:1;"></ellipse><path d="M1721.0688,459.9788 L1713.3491,459.9788 L1713.3491,447.5858 L1721.0688,447.5858 L1721.0688,449.744 L1715.7979,449.744 L1715.7979,452.4168 L1720.5708,452.4168 L1720.5708,454.575 L1715.7979,454.575 L1715.7979,457.8206 L1721.0688,457.8206 Z " fill="#000000"></path><text fill="#000000" font-family="sans-serif" font-size="12" font-style="italic" lengthAdjust="spacing" textLength="41.3965" x="1746.9038" y="449.7698">«table»</text><text fill="#000000" font-family="sans-serif" font-size="14" lengthAdjust="spacing" textLength="59.2949" x="1737.9546" y="465.8362">specialty</text><line style="stroke:#181818;stroke-width:0.5;" x1="1627" x2="1875.7041" y1="473.7894" y2="473.7894"></line><text fill="#000000" font-family="sans-serif" font-size="14" lengthAdjust="spacing" textLength="114.3037" x="1632" y="491.3245">*id : BIGINT «PK»</text><line style="stroke:#181818;stroke-width:1;" x1="1627" x2="1875.7041" y1="498.2777" y2="498.2777"></line><text fill="#000000" font-family="sans-serif" font-size="14" lengthAdjust="spacing" textLength="238.7041" x="1632" y="515.8128">*name : VARCHAR(100) «NN, UNQ»</text><text fill="#000000" font-family="sans-serif" font-size="14" lengthAdjust="spacing" textLength="191.1807" x="1632" y="532.3011">description : VARCHAR(200)</text><text fill="#000000" font-family="sans-serif" font-size="14" lengthAdjust="spacing" textLength="201.7012" x="1632" y="548.7894">created_at : TIMESTAMP «NN»</text><text fill="#000000" font-family="sans-serif" font-size="14" lengthAdjust="spacing" textLength="207.3135" x="1632" y="565.2777">updated_at : TIMESTAMP «NN»</text></g><g class="entity" data-qualified-name="clinical_evolution" data-source-line="133" id="ent0012"><rect fill="#F1F1F1" height="270.9688" rx="2.5" ry="2.5" style="stroke:#181818;stroke-width:0.5;" width="249.8906" x="1163.41" y="755.8883"></rect><ellipse cx="1225.6546" cy="776.1988" fill="#ADD1B2" rx="11" ry="11" style="stroke:#181818;stroke-width:1;"></ellipse><path d="M1229.2689,782.6988 L1221.5492,782.6988 L1221.5492,770.3058 L1229.2689,770.3058 L1229.2689,772.464 L1223.9979,772.464 L1223.9979,775.1368 L1228.7708,775.1368 L1228.7708,777.295 L1223.9979,777.295 L1223.9979,780.5406 L1229.2689,780.5406 Z " fill="#000000"></path><text fill="#000000" font-family="sans-serif" font-size="12" font-style="italic" lengthAdjust="spacing" textLength="41.3965" x="1283.9071" y="772.4898">«table»</text><text fill="#000000" font-family="sans-serif" font-size="14" lengthAdjust="spacing" textLength="116.9014" x="1246.1546" y="788.5563">clinical_evolution</text><line style="stroke:#181818;stroke-width:0.5;" x1="1164.41" x2="1412.3006" y1="796.5094" y2="796.5094"></line><text fill="#000000" font-family="sans-serif" font-size="14" lengthAdjust="spacing" textLength="114.3037" x="1169.41" y="814.0445">*id : BIGINT «PK»</text><line style="stroke:#181818;stroke-width:1;" x1="1164.41" x2="1412.3006" y1="820.9977" y2="820.9977"></line><text fill="#000000" font-family="sans-serif" font-size="14" lengthAdjust="spacing" textLength="198.167" x="1169.41" y="838.5328">*patient_id : BIGINT «NN, FK»</text><text fill="#000000" font-family="sans-serif" font-size="14" lengthAdjust="spacing" textLength="158.4707" x="1169.41" y="855.0211">doctor_id : BIGINT «FK»</text><text fill="#000000" font-family="sans-serif" font-size="14" lengthAdjust="spacing" textLength="152.0586" x="1169.41" y="871.5094">cid10_id : BIGINT «FK»</text><text fill="#000000" font-family="sans-serif" font-size="14" lengthAdjust="spacing" textLength="173.6191" x="1169.41" y="887.9977">specialty_id : BIGINT «FK»</text><text fill="#000000" font-family="sans-serif" font-size="14" lengthAdjust="spacing" textLength="167.8701" x="1169.41" y="904.4859">created_by : BIGINT «FK»</text><text fill="#000000" font-family="sans-serif" font-size="14" lengthAdjust="spacing" textLength="219.707" x="1169.41" y="920.9742">*appointment_date : DATE «NN»</text><text fill="#000000" font-family="sans-serif" font-size="14" lengthAdjust="spacing" textLength="237.8906" x="1169.41" y="937.4625">*complaint : VARCHAR(1000) «NN»</text><text fill="#000000" font-family="sans-serif" font-size="14" lengthAdjust="spacing" textLength="188.8838" x="1169.41" y="953.9508">diagnosis : VARCHAR(1000)</text><text fill="#000000" font-family="sans-serif" font-size="14" lengthAdjust="spacing" textLength="226.2832" x="1169.41" y="970.4391">consultation_type : VARCHAR(20)</text><text fill="#000000" font-family="sans-serif" font-size="14" lengthAdjust="spacing" textLength="164.2061" x="1169.41" y="986.9273">subject : VARCHAR(200)</text><text fill="#000000" font-family="sans-serif" font-size="14" lengthAdjust="spacing" textLength="201.7012" x="1169.41" y="1003.4156">created_at : TIMESTAMP «NN»</text><text fill="#000000" font-family="sans-serif" font-size="14" lengthAdjust="spacing" textLength="207.3135" x="1169.41" y="1019.9039">updated_at : TIMESTAMP «NN»</text></g><g class="link" data-entity-1="ent0003" data-entity-2="ent0002" data-link-type="crowfoot" data-source-line="152" id="lnk13"><path codeline="152" d="M429.5,216.5483 C429.5,245.0783 429.5,254.7283 429.5,291.2583" fill="none" id="unity-patients" style="stroke:#181818;stroke-width:1;"></path><line style="stroke:#181818;stroke-width:1;" x1="425.5" x2="433.5" y1="212.5483" y2="212.5483"></line><line style="stroke:#181818;stroke-width:1;" x1="425.5" x2="433.5" y1="215.5483" y2="215.5483"></line><line style="stroke:#181818;stroke-width:1;" x1="429.5" x2="429.5" y1="216.5483" y2="208.5483"></line><line style="stroke:#181818;stroke-width:1;" x1="429.5" x2="435.5" y1="301.2583" y2="309.2583"></line><line style="stroke:#181818;stroke-width:1;" x1="429.5" x2="423.5" y1="301.2583" y2="309.2583"></line><line style="stroke:#181818;stroke-width:1;" x1="429.5" x2="429.5" y1="301.2583" y2="309.2583"></line><ellipse cx="429.5" cy="295.2583" fill="none" rx="4" ry="4" style="stroke:#181818;stroke-width:1;"></ellipse><text fill="#000000" font-family="sans-serif" font-size="13" lengthAdjust="spacing" textLength="87.7119" x="341.5" y="255.4666">contains (1:N)</text></g><g class="link" data-entity-1="ent0002" data-entity-2="ent0006" data-link-type="crowfoot" data-source-line="153" id="lnk14"><path codeline="153" d="M400.52,704.1783 C400.52,736.0583 400.52,741.9783 400.52,770.4883" fill="none" id="patients-result_exams" style="stroke:#181818;stroke-width:1;"></path><line style="stroke:#181818;stroke-width:1;" x1="396.52" x2="404.52" y1="700.1783" y2="700.1783"></line><line style="stroke:#181818;stroke-width:1;" x1="396.52" x2="404.52" y1="703.1783" y2="703.1783"></line><line style="stroke:#181818;stroke-width:1;" x1="400.52" x2="400.52" y1="704.1783" y2="696.1783"></line><line style="stroke:#181818;stroke-width:1;" x1="400.52" x2="406.52" y1="780.4883" y2="788.4883"></line><line style="stroke:#181818;stroke-width:1;" x1="400.52" x2="394.52" y1="780.4883" y2="788.4883"></line><line style="stroke:#181818;stroke-width:1;" x1="400.52" x2="400.52" y1="780.4883" y2="788.4883"></line><ellipse cx="400.52" cy="774.4883" fill="none" rx="4" ry="4" style="stroke:#181818;stroke-width:1;"></ellipse><text fill="#000000" font-family="sans-serif" font-size="13" lengthAdjust="spacing" textLength="56.3799" x="343.52" y="738.9066">has (1:N)</text></g><g class="link" data-entity-1="ent0002" data-entity-2="ent0009" data-link-type="crowfoot" data-source-line="154" id="lnk15"><path codeline="154" d="M621.63,662.8583 C646.48,662.8583 657.08,662.8583 657.08,662.8583 C657.08,662.8583 657.08,704.0083 657.08,762.1283" fill="none" id="patients-current_medication" style="stroke:#181818;stroke-width:1;"></path><line style="stroke:#181818;stroke-width:1;" x1="617.63" x2="617.63" y1="666.8583" y2="658.8583"></line><line style="stroke:#181818;stroke-width:1;" x1="620.63" x2="620.63" y1="666.8583" y2="658.8583"></line><line style="stroke:#181818;stroke-width:1;" x1="621.63" x2="613.63" y1="662.8583" y2="662.8583"></line><line style="stroke:#181818;stroke-width:1;" x1="657.08" x2="663.08" y1="772.1283" y2="780.1283"></line><line style="stroke:#181818;stroke-width:1;" x1="657.08" x2="651.08" y1="772.1283" y2="780.1283"></line><line style="stroke:#181818;stroke-width:1;" x1="657.08" x2="657.08" y1="772.1283" y2="780.1283"></line><ellipse cx="657.08" cy="766.1283" fill="none" rx="4" ry="4" style="stroke:#181818;stroke-width:1;"></ellipse><text fill="#000000" font-family="sans-serif" font-size="13" lengthAdjust="spacing" textLength="63.0703" x="593.08" y="713.3366">uses (1:N)</text></g><g class="link" data-entity-1="ent0002" data-entity-2="ent0012" data-link-type="crowfoot" data-source-line="155" id="lnk16"><path codeline="155" d="M621.75,629.8583 C822.93,629.8583 1187.48,629.8583 1187.48,629.8583 C1187.48,629.8583 1187.48,673.9583 1187.48,737.6383" fill="none" id="patients-clinical_evolution" style="stroke:#181818;stroke-width:1;"></path><line style="stroke:#181818;stroke-width:1;" x1="617.75" x2="617.75" y1="633.8583" y2="625.8583"></line><line style="stroke:#181818;stroke-width:1;" x1="620.75" x2="620.75" y1="633.8583" y2="625.8583"></line><line style="stroke:#181818;stroke-width:1;" x1="621.75" x2="613.75" y1="629.8583" y2="629.8583"></line><line style="stroke:#181818;stroke-width:1;" x1="1187.48" x2="1193.48" y1="747.6383" y2="755.6383"></line><line style="stroke:#181818;stroke-width:1;" x1="1187.48" x2="1181.48" y1="747.6383" y2="755.6383"></line><line style="stroke:#181818;stroke-width:1;" x1="1187.48" x2="1187.48" y1="747.6383" y2="755.6383"></line><ellipse cx="1187.48" cy="741.6383" fill="none" rx="4" ry="4" style="stroke:#181818;stroke-width:1;"></ellipse><text fill="#000000" font-family="sans-serif" font-size="13" lengthAdjust="spacing" textLength="56.3799" x="906.5" y="626.4266">has (1:N)</text></g><g class="link" data-entity-1="ent0005" data-entity-2="ent0006" data-link-type="crowfoot" data-source-line="156" id="lnk17"><path codeline="156" d="M220.33,580.6283 C220.33,640.8483 220.33,702.5483 220.33,770.7183" fill="none" id="exams-result_exams" style="stroke:#181818;stroke-width:1;"></path><line style="stroke:#181818;stroke-width:1;" x1="216.33" x2="224.33" y1="576.6283" y2="576.6283"></line><line style="stroke:#181818;stroke-width:1;" x1="216.33" x2="224.33" y1="579.6283" y2="579.6283"></line><line style="stroke:#181818;stroke-width:1;" x1="220.33" x2="220.33" y1="580.6283" y2="572.6283"></line><line style="stroke:#181818;stroke-width:1;" x1="220.33" x2="226.33" y1="780.7183" y2="788.7183"></line><line style="stroke:#181818;stroke-width:1;" x1="220.33" x2="214.33" y1="780.7183" y2="788.7183"></line><line style="stroke:#181818;stroke-width:1;" x1="220.33" x2="220.33" y1="780.7183" y2="788.7183"></line><ellipse cx="220.33" cy="774.7183" fill="none" rx="4" ry="4" style="stroke:#181818;stroke-width:1;"></ellipse><text fill="#000000" font-family="sans-serif" font-size="13" lengthAdjust="spacing" textLength="102.9971" x="117.33" y="677.2466">has results (1:N)</text></g><g class="link" data-entity-1="ent0007" data-entity-2="ent0009" data-link-type="crowfoot" data-source-line="157" id="lnk18"><path codeline="157" d="M770.75,588.8883 C770.75,646.0783 770.75,698.4683 770.75,762.1783" fill="none" id="medications-current_medication" style="stroke:#181818;stroke-width:1;"></path><line style="stroke:#181818;stroke-width:1;" x1="766.75" x2="774.75" y1="584.8883" y2="584.8883"></line><line style="stroke:#181818;stroke-width:1;" x1="766.75" x2="774.75" y1="587.8883" y2="587.8883"></line><line style="stroke:#181818;stroke-width:1;" x1="770.75" x2="770.75" y1="588.8883" y2="580.8883"></line><line style="stroke:#181818;stroke-width:1;" x1="770.75" x2="776.75" y1="772.1783" y2="780.1783"></line><line style="stroke:#181818;stroke-width:1;" x1="770.75" x2="764.75" y1="772.1783" y2="780.1783"></line><line style="stroke:#181818;stroke-width:1;" x1="770.75" x2="770.75" y1="772.1783" y2="780.1783"></line><ellipse cx="770.75" cy="766.1783" fill="none" rx="4" ry="4" style="stroke:#181818;stroke-width:1;"></ellipse><text fill="#000000" font-family="sans-serif" font-size="13" lengthAdjust="spacing" textLength="123.4175" x="646.75" y="677.0966">prescribed for (1:N)</text></g><g class="link" data-entity-1="ent0008" data-entity-2="ent0009" data-link-type="crowfoot" data-source-line="158" id="lnk19"><path codeline="158" d="M996.77,588.8583 C913.05,588.8583 822.51,588.8583 822.51,588.8583 C822.51,588.8583 822.51,676.1083 822.51,762.4483" fill="none" id="doctors-current_medication" style="stroke:#181818;stroke-width:1;"></path><line style="stroke:#181818;stroke-width:1;" x1="1000.77" x2="1000.77" y1="584.8583" y2="592.8583"></line><line style="stroke:#181818;stroke-width:1;" x1="997.77" x2="997.77" y1="584.8583" y2="592.8583"></line><line style="stroke:#181818;stroke-width:1;" x1="996.77" x2="1004.77" y1="588.8583" y2="588.8583"></line><line style="stroke:#181818;stroke-width:1;" x1="822.51" x2="828.51" y1="772.4483" y2="780.4483"></line><line style="stroke:#181818;stroke-width:1;" x1="822.51" x2="816.51" y1="772.4483" y2="780.4483"></line><line style="stroke:#181818;stroke-width:1;" x1="822.51" x2="822.51" y1="772.4483" y2="780.4483"></line><ellipse cx="822.51" cy="766.4483" fill="none" rx="4" ry="4" style="stroke:#181818;stroke-width:1;"></ellipse><text fill="#000000" font-family="sans-serif" font-size="13" lengthAdjust="spacing" textLength="99.6646" x="722.51" y="607.0866">prescribes (1:N)</text></g><g class="link" data-entity-1="ent0008" data-entity-2="ent0012" data-link-type="crowfoot" data-source-line="159" id="lnk20"><path codeline="159" d="M1211.55,605.2783 C1211.55,652.8083 1211.55,685.2483 1211.55,737.4883" fill="none" id="doctors-clinical_evolution" style="stroke:#181818;stroke-width:1;"></path><line style="stroke:#181818;stroke-width:1;" x1="1207.55" x2="1215.55" y1="601.2783" y2="601.2783"></line><line style="stroke:#181818;stroke-width:1;" x1="1207.55" x2="1215.55" y1="604.2783" y2="604.2783"></line><line style="stroke:#181818;stroke-width:1;" x1="1211.55" x2="1211.55" y1="605.2783" y2="597.2783"></line><line style="stroke:#181818;stroke-width:1;" x1="1211.55" x2="1217.55" y1="747.4883" y2="755.4883"></line><line style="stroke:#181818;stroke-width:1;" x1="1211.55" x2="1205.55" y1="747.4883" y2="755.4883"></line><line style="stroke:#181818;stroke-width:1;" x1="1211.55" x2="1211.55" y1="747.4883" y2="755.4883"></line><ellipse cx="1211.55" cy="741.4883" fill="none" rx="4" ry="4" style="stroke:#181818;stroke-width:1;"></ellipse><text fill="#000000" font-family="sans-serif" font-size="13" lengthAdjust="spacing" textLength="89.6099" x="1121.55" y="672.9466">registers (1:N)</text></g><g class="link" data-entity-1="ent0010" data-entity-2="ent0012" data-link-type="crowfoot" data-source-line="160" id="lnk21"><path codeline="160" d="M1377.4,580.6283 C1377.4,631.4483 1377.4,675.8383 1377.4,737.5483" fill="none" id="cid10-clinical_evolution" style="stroke:#181818;stroke-width:1;"></path><line style="stroke:#181818;stroke-width:1;" x1="1373.4" x2="1381.4" y1="576.6283" y2="576.6283"></line><line style="stroke:#181818;stroke-width:1;" x1="1373.4" x2="1381.4" y1="579.6283" y2="579.6283"></line><line style="stroke:#181818;stroke-width:1;" x1="1377.4" x2="1377.4" y1="580.6283" y2="572.6283"></line><line style="stroke:#181818;stroke-width:1;" x1="1377.4" x2="1383.4" y1="747.5483" y2="755.5483"></line><line style="stroke:#181818;stroke-width:1;" x1="1377.4" x2="1371.4" y1="747.5483" y2="755.5483"></line><line style="stroke:#181818;stroke-width:1;" x1="1377.4" x2="1377.4" y1="747.5483" y2="755.5483"></line><ellipse cx="1377.4" cy="741.5483" fill="none" rx="4" ry="4" style="stroke:#181818;stroke-width:1;"></ellipse><text fill="#000000" font-family="sans-serif" font-size="13" lengthAdjust="spacing" textLength="91.5205" x="1285.4" y="660.6566">classifies (1:N)</text></g><g class="link" data-entity-1="ent0011" data-entity-2="ent0012" data-link-type="crowfoot" data-source-line="161" id="lnk22"><path codeline="161" d="M1751.35,580.7183 C1751.35,692.7583 1751.35,891.8583 1751.35,891.8583 C1751.35,891.8583 1568.77,891.8583 1431.65,891.8583" fill="none" id="specialty-clinical_evolution" style="stroke:#181818;stroke-width:1;"></path><line style="stroke:#181818;stroke-width:1;" x1="1747.35" x2="1755.35" y1="576.7183" y2="576.7183"></line><line style="stroke:#181818;stroke-width:1;" x1="1747.35" x2="1755.35" y1="579.7183" y2="579.7183"></line><line style="stroke:#181818;stroke-width:1;" x1="1751.35" x2="1751.35" y1="580.7183" y2="572.7183"></line><line style="stroke:#181818;stroke-width:1;" x1="1421.65" x2="1413.65" y1="891.8583" y2="897.8583"></line><line style="stroke:#181818;stroke-width:1;" x1="1421.65" x2="1413.65" y1="891.8583" y2="885.8583"></line><line style="stroke:#181818;stroke-width:1;" x1="1421.65" x2="1413.65" y1="891.8583" y2="891.8583"></line><ellipse cx="1427.65" cy="891.8583" fill="none" rx="4" ry="4" style="stroke:#181818;stroke-width:1;"></ellipse><text fill="#000000" font-family="sans-serif" font-size="13" lengthAdjust="spacing" textLength="95.2529" x="1646.07" y="888.4266">related to (1:N)</text></g><g class="link" data-entity-1="ent0004" data-entity-2="ent0002" data-link-type="crowfoot" data-source-line="162" id="lnk23"><path codeline="162" d="M572.08,257.8783 C572.08,276.6483 572.08,270.7883 572.08,291.2083" fill="none" id="users-patients" style="stroke:#181818;stroke-width:1;"></path><line style="stroke:#181818;stroke-width:1;" x1="568.08" x2="576.08" y1="253.8783" y2="253.8783"></line><line style="stroke:#181818;stroke-width:1;" x1="568.08" x2="576.08" y1="256.8783" y2="256.8783"></line><line style="stroke:#181818;stroke-width:1;" x1="572.08" x2="572.08" y1="257.8783" y2="249.8783"></line><line style="stroke:#181818;stroke-width:1;" x1="572.08" x2="578.08" y1="301.2083" y2="309.2083"></line><line style="stroke:#181818;stroke-width:1;" x1="572.08" x2="566.08" y1="301.2083" y2="309.2083"></line><line style="stroke:#181818;stroke-width:1;" x1="572.08" x2="572.08" y1="301.2083" y2="309.2083"></line><ellipse cx="572.08" cy="295.2083" fill="none" rx="4" ry="4" style="stroke:#181818;stroke-width:1;"></ellipse><text fill="#000000" font-family="sans-serif" font-size="13" lengthAdjust="spacing" textLength="79.6377" x="492.08" y="276.1066">creates (1:N)</text></g><g class="link" data-entity-1="ent0004" data-entity-2="ent0006" data-link-type="crowfoot" data-source-line="163" id="lnk24"><path codeline="163" d="M522.3,228.8583 C421.84,228.8583 310.5,228.8583 310.5,228.8583 C310.5,228.8583 310.5,584.4983 310.5,770.5783" fill="none" id="users-result_exams" style="stroke:#181818;stroke-width:1;"></path><line style="stroke:#181818;stroke-width:1;" x1="526.3" x2="526.3" y1="224.8583" y2="232.8583"></line><line style="stroke:#181818;stroke-width:1;" x1="523.3" x2="523.3" y1="224.8583" y2="232.8583"></line><line style="stroke:#181818;stroke-width:1;" x1="522.3" x2="530.3" y1="228.8583" y2="228.8583"></line><line style="stroke:#181818;stroke-width:1;" x1="310.5" x2="316.5" y1="780.5783" y2="788.5783"></line><line style="stroke:#181818;stroke-width:1;" x1="310.5" x2="304.5" y1="780.5783" y2="788.5783"></line><line style="stroke:#181818;stroke-width:1;" x1="310.5" x2="310.5" y1="780.5783" y2="788.5783"></line><ellipse cx="310.5" cy="774.5783" fill="none" rx="4" ry="4" style="stroke:#181818;stroke-width:1;"></ellipse><text fill="#000000" font-family="sans-serif" font-size="13" lengthAdjust="spacing" textLength="79.6377" x="230.5" y="395.3866">creates (1:N)</text></g><g class="link" data-entity-1="ent0004" data-entity-2="ent0009" data-link-type="crowfoot" data-source-line="164" id="lnk25"><path codeline="164" d="M677.72,257.7183 C677.72,397.0083 677.72,618.8383 677.72,762.3083" fill="none" id="users-current_medication" style="stroke:#181818;stroke-width:1;"></path><line style="stroke:#181818;stroke-width:1;" x1="673.72" x2="681.72" y1="253.7183" y2="253.7183"></line><line style="stroke:#181818;stroke-width:1;" x1="673.72" x2="681.72" y1="256.7183" y2="256.7183"></line><line style="stroke:#181818;stroke-width:1;" x1="677.72" x2="677.72" y1="257.7183" y2="249.7183"></line><line style="stroke:#181818;stroke-width:1;" x1="677.72" x2="683.72" y1="772.3083" y2="780.3083"></line><line style="stroke:#181818;stroke-width:1;" x1="677.72" x2="671.72" y1="772.3083" y2="780.3083"></line><line style="stroke:#181818;stroke-width:1;" x1="677.72" x2="677.72" y1="772.3083" y2="780.3083"></line><ellipse cx="677.72" cy="766.3083" fill="none" rx="4" ry="4" style="stroke:#181818;stroke-width:1;"></ellipse><text fill="#000000" font-family="sans-serif" font-size="13" lengthAdjust="spacing" textLength="79.6377" x="638.22" y="528.5866">creates (1:N)</text></g><g class="link" data-entity-1="ent0004" data-entity-2="ent0012" data-link-type="crowfoot" data-source-line="165" id="lnk26"><path codeline="165" d="M698.36,257.8683 C698.36,434.3083 698.36,767.8583 698.36,767.8583 C698.36,767.8583 972.04,767.8583 1145.23,767.8583" fill="none" id="users-clinical_evolution" style="stroke:#181818;stroke-width:1;"></path><line style="stroke:#181818;stroke-width:1;" x1="694.36" x2="702.36" y1="253.8683" y2="253.8683"></line><line style="stroke:#181818;stroke-width:1;" x1="694.36" x2="702.36" y1="256.8683" y2="256.8683"></line><line style="stroke:#181818;stroke-width:1;" x1="698.36" x2="698.36" y1="257.8683" y2="249.8683"></line><line style="stroke:#181818;stroke-width:1;" x1="1155.23" x2="1163.23" y1="767.8583" y2="761.8583"></line><line style="stroke:#181818;stroke-width:1;" x1="1155.23" x2="1163.23" y1="767.8583" y2="773.8583"></line><line style="stroke:#181818;stroke-width:1;" x1="1155.23" x2="1163.23" y1="767.8583" y2="767.8583"></line><ellipse cx="1149.23" cy="767.8583" fill="none" rx="4" ry="4" style="stroke:#181818;stroke-width:1;"></ellipse><text fill="#000000" font-family="sans-serif" font-size="13" lengthAdjust="spacing" textLength="79.6377" x="618.36" y="737.8666">creates (1:N)</text></g><g class="legend" data-source-line="167"><rect fill="#DDDDDD" height="75.9531" rx="7.5" ry="7.5" style="stroke:#000000;stroke-width:1;" width="141.5781" x="864.063" y="1044.857"></rect><text fill="#000000" font-family="sans-serif" font-size="14" lengthAdjust="spacing" textLength="131.5781" x="869.063" y="1063.3922">«PK» = Primary Key</text><text fill="#000000" font-family="sans-serif" font-size="14" lengthAdjust="spacing" textLength="131.0859" x="869.063" y="1079.8805">«FK» = Foreign Key</text><text fill="#000000" font-family="sans-serif" font-size="14" lengthAdjust="spacing" textLength="111.0771" x="869.063" y="1096.3688">«NN» = Not Null</text><text fill="#000000" font-family="sans-serif" font-size="14" lengthAdjust="spacing" textLength="113.3125" x="869.063" y="1112.857">«UNQ» = Unique</text></g></g></svg>